<svg xmlns="http://www.w3.org/2000/svg" xmlns:xlink="http://www.w3.org/1999/xlink" viewBox="0 0 76.54 50.4"><defs><style>.cls-1{fill:url(#Gradient_bez_nazwy_7);}.cls-2{fill:url(#Gradient_bez_nazwy_7-2);}.cls-3{fill:#b3b3b3;}</style><linearGradient id="Gradient_bez_nazwy_7" x1="7.12" y1="-8.85" x2="83.62" y2="40.65" gradientUnits="userSpaceOnUse"><stop offset="0" stop-color="#22b573"/><stop offset="1" stop-color="#29abe2"/></linearGradient><linearGradient id="Gradient_bez_nazwy_7-2" x1="-3.07" y1="6.91" x2="73.43" y2="56.41" xlink:href="#Gradient_bez_nazwy_7"/></defs><title>logo</title><g id="Warstwa_2" data-name="Warstwa 2"><g id="Warstwa_1-2" data-name="Warstwa 1"><polygon class="cls-1" points="76.54 0 59.74 16.8 42.94 0 42.94 50.41 43.11 50.41 47.69 50.41 47.69 45.66 47.69 11.47 56.38 20.16 59.74 23.52 63.1 20.16 71.8 11.47 71.8 45.66 71.8 50.41 76.54 50.41 76.54 0"/><polygon class="cls-2" points="28.85 0 28.85 4.75 28.85 31.64 16.8 43.69 4.75 31.64 0 33.6 0 33.6 16.8 50.41 33.6 33.6 33.6 0 28.85 0"/><rect class="cls-3" x="49.05" y="47.01" width="21.39" height="2.04"/><polygon class="cls-3" points="3.39 4.75 3.39 3.39 4.75 3.39 27.5 3.39 27.5 1.36 4.75 1.36 1.36 1.36 1.36 4.75 1.36 31.57 3.39 30.73 3.39 4.75"/></g></g></svg>